<?xml version="1.0" standalone="no"?>
<!DOCTYPE svg PUBLIC "-//W3C//DTD SVG 20010904//EN"
 "http://www.w3.org/TR/2001/REC-SVG-20010904/DTD/svg10.dtd">
<svg version="1.0" xmlns="http://www.w3.org/2000/svg"
 width="648.000000pt" height="648.000000pt" viewBox="0 0 648.000000 648.000000"
 preserveAspectRatio="xMidYMid meet">
<metadata>
Created by potrace 1.11, written by Peter Selinger 2001-2013
</metadata>
<g transform="translate(0.000000,648.000000) scale(0.100000,-0.100000)"
fill="#000000" stroke="none">
<path d="M2885 6052 c-192 -103 -824 -441 -1403 -751 l-1052 -563 2 -1500 3
-1499 1402 -749 1403 -750 1287 688 c709 379 1341 717 1406 751 l117 63 -2
1500 -3 1500 -1400 749 c-770 412 -1402 749 -1405 749 -3 0 -162 -85 -355
-188z m1111 -1137 c87 -54 128 -138 173 -355 42 -204 55 -493 31 -670 -28
-208 -101 -429 -210 -635 -88 -165 -112 -237 -130 -392 -14 -118 -1 -234 43
-387 31 -106 32 -118 32 -286 -1 -336 -56 -490 -203 -562 -47 -23 -47 -23
-492 -23 -445 0 -445 0 -492 23 -147 72 -202 226 -203 562 0 168 1 180 32 287
45 154 57 269 43 386 -18 155 -42 227 -130 392 -155 292 -223 555 -222 865 0
181 22 370 62 528 45 175 85 238 184 283 39 18 77 19 737 16 l696 -2 49 -30z"/>
<path d="M2583 4718 c-42 -45 -91 -294 -100 -505 l-6 -143 91 0 91 0 -1 -122
c0 -68 5 -152 12 -188 28 -153 113 -357 166 -399 48 -38 126 -24 157 29 24 40
21 83 -9 142 -84 166 -124 374 -98 507 l7 31 553 0 554 0 0 94 c0 189 -59 507
-102 553 l-21 23 -637 0 -637 0 -20 -22z"/>
</g>
</svg>
