<svg width="81" height="75" viewBox="0 0 81 75" fill="none" xmlns="http://www.w3.org/2000/svg">
<g id="Logo">
<g id="Polygon">
<path d="M40.5 0L75.574 18.75V56.25L40.5 75L5.42597 56.25V18.75L40.5 0Z" fill="#9CACFF"/>
<path d="M40.5 0L75.574 18.75V56.25L40.5 75L5.42597 56.25V18.75L40.5 0Z" fill="url(#paint0_linear)"/>
</g>
<g id="beer-glass-svgrepo-com" clip-path="url(#clip0)">
<path id="glass" d="M52.7358 26.7279C52.7358 23.8837 52.3412 21.1374 51.5636 18.5668C51.0977 17.0325 49.7301 16 48.1603 16H32.8399C31.2693 16 29.9017 17.0325 29.4362 18.568C28.6586 21.1374 28.2644 23.8837 28.2644 26.7279C28.2644 31.417 29.9242 35.3064 31.3166 37.7418C32.9059 40.5246 33.2383 43.8684 32.2296 46.9163C31.8504 48.0597 31.6663 49.1303 31.6663 50.1917C31.6663 51.957 31.8846 53.6772 32.3144 55.3045C32.733 56.8911 34.1472 58.0001 35.7534 58.0001H45.2469C46.852 58.0001 48.2665 56.8912 48.6855 55.3045C49.1154 53.6772 49.3337 51.9569 49.3337 50.1917C49.3337 49.1304 49.1495 48.0598 48.771 46.9178C47.7616 43.8684 48.0944 40.5234 49.6841 37.7433C51.0755 35.3064 52.7358 31.417 52.7358 26.7279ZM32.0473 19.3983C32.1556 19.0398 32.4737 18.8004 32.8398 18.8004H48.1603C48.526 18.8004 48.8445 19.0398 48.9525 19.3967C49.6487 21.6985 50.0017 24.1638 50.0017 26.7278C50.0017 26.8497 49.9885 26.9657 49.9863 27.0859H36.0782C36.0077 27.6715 35.9537 28.2622 35.9537 28.8719C35.9537 31.1037 36.7586 32.9826 37.4339 34.1643C37.815 34.8317 37.5956 35.6905 36.944 36.0817C36.7273 36.2101 36.4894 36.2731 36.2553 36.2731C35.7853 36.2731 35.328 36.0241 35.0737 35.5784C33.861 33.4547 33.2196 31.1353 33.2196 28.872C33.2196 28.2676 33.2597 27.6743 33.319 27.086H31.0136C31.0117 26.9657 30.9982 26.8498 30.9982 26.7279C30.9981 24.1639 31.3511 21.6985 32.0473 19.3983Z" fill="#E6E2ED"/>
</g>
</g>
<defs>
<linearGradient id="paint0_linear" x1="68.5" y1="7.5" x2="20.5" y2="75" gradientUnits="userSpaceOnUse">
<stop stop-color="#8F9BEC"/>
<stop offset="1" stop-color="white" stop-opacity="0"/>
</linearGradient>
<clipPath id="clip0">
<rect width="41" height="42" fill="white" transform="translate(20 16)"/>
</clipPath>
</defs>
</svg>
